<svg width="167" height="165" viewBox="0 0 167 165" fill="none" xmlns="http://www.w3.org/2000/svg">
<path d="M67.3203 49.7535H98.0126L113.532 22.6501L113.738 22.5649L105.272 7.07862L105.253 7.08807L82.6618 3.46482L60.0799 7.08807L60.0518 7.07862L51.5859 22.5744L51.7917 22.6501L67.3203 49.7535Z" fill="white"/>
<path d="M115.866 139.266L84.4531 158.745V164.241C104.098 163.9 122.087 156.654 136.137 144.81L134.547 139.266H115.866Z" fill="white"/>
<path d="M15.4179 79.5331C15.4179 79.5331 14.8659 42.6857 14.9221 42.7141L10.0764 40.1598C3.64982 52.0797 -0.0078125 65.7591 -0.0078125 80.2994C-0.0078125 85.5214 0.46927 90.6299 1.36731 95.5871L6.48425 95.8803L15.4085 79.5426L15.4179 79.5331Z" fill="white"/>
<path d="M17.9824 81.639L9.22656 97.6646L30.3305 135.959H48.656L64.4559 109.405L48.5251 81.6485L17.9824 81.639Z" fill="white"/>
<path d="M113.635 80.4936L98.3963 53.0306C90.5478 52.832 74.7573 52.832 66.9088 53.0306L51.6702 80.4936L51.6328 80.5125L67.3765 107.947H97.9285L113.672 80.5125L113.635 80.4936Z" fill="white"/>
<path d="M149.893 79.5349L158.817 95.8726L164.645 95.5415C165.543 90.5939 166.011 85.5043 166.011 80.2917C166.011 65.6379 162.297 51.8638 155.767 39.8683L150.379 42.7064C150.445 42.7442 149.865 79.4781 149.883 79.5254L149.893 79.5349Z" fill="white"/>
<path d="M49.4279 139.266H30.7468L29.2969 144.327C43.3474 156.389 61.4204 163.815 81.196 164.241V158.972L49.4279 139.276V139.266Z" fill="white"/>
<path d="M116.9 21.543L149.145 39.6309V39.6498L154.15 37.0104C144.112 20.1713 128.397 7.18246 109.678 0.758995L107.957 5.1769L116.9 21.543Z" fill="white"/>
<path d="M16.1809 39.6279L48.4354 21.54L57.3784 5.17391L55.7413 0.983055C37.1912 7.51058 21.6346 20.4994 11.7188 37.2912L16.1809 39.6468V39.6279Z" fill="white"/>
<path d="M147.337 81.639L116.794 81.6485L100.863 109.405L116.663 135.959H134.989L156.093 97.6646L147.337 81.639Z" fill="white"/>
</svg>
