<svg width="30" height="24" viewBox="0 0 30 24" fill="none" xmlns="http://www.w3.org/2000/svg">
<circle cx="2.95774" cy="11.2136" r="2.2136" stroke="#EFE639" stroke-width="1.5"/>
<circle cx="26.9695" cy="11.2136" r="2.2136" stroke="#EFE639" stroke-width="1.5"/>
<path d="M22.6833 4.92675L22.1656 4.92605L22.1677 4.92815L0.0288515 4.92046L0.0302156 3.33673L19.0807 3.33603L16.6914 0.855599L17.7186 -0.210938L22.6833 4.92675Z" fill="#EFE639"/>
<path d="M17.7891 9.94348L21.131 6.51781L19.0729 6.50554L16.754 8.88282L17.7891 9.94348Z" fill="#EFE639"/>
<path d="M7.51082 19.1474L8.0285 19.1467L8.02713 19.1481L29.9525 19.1411L29.9593 17.5573H11.1114L13.502 15.0755L12.4755 14.0097L7.51082 19.1474Z" fill="#EFE639"/>
<path d="M12.4043 24.1641L9.06231 20.7384L11.1205 20.7261L13.4394 23.1034L12.4043 24.1641Z" fill="#EFE639"/>
</svg>
